<svg width="24" height="24" viewBox="0 0 24 24" fill="none" xmlns="http://www.w3.org/2000/svg">
    <mask id="qopxsh4f7a" style="mask-type:alpha" maskUnits="userSpaceOnUse" x="0" y="1" width="24" height="22">
        <path d="M2.848 4.156h18.303c.72 0 1.308-.589 1.308-1.308 0-.719-.588-1.307-1.308-1.307H2.848c-.719 0-1.307.588-1.307 1.307 0 .72.588 1.308 1.307 1.308zm19.82 2.353a1.304 1.304 0 0 0-1.281-1.046H2.613c-.627 0-1.163.445-1.281 1.046L.025 13.046a1.313 1.313 0 0 0 1.28 1.569h.236v6.536c0 .72.588 1.308 1.307 1.308h10.46c.718 0 1.307-.588 1.307-1.308v-6.536h5.23v6.536c0 .72.588 1.308 1.306 1.308.72 0 1.308-.588 1.308-1.308v-6.536h.235c.824 0 1.438-.759 1.281-1.57L22.668 6.51zM12 19.844H4.156v-5.23H12v5.23z" fill="#ffffff"/>
    </mask>
    <g mask="url(#qopxsh4f7a)">
        <path fill="#D4D6DD" d="M0-.001h24v24H0z"/>
    </g>
</svg>
