<svg width="20" height="20" viewBox="0 0 20 20" fill="none" xmlns="http://www.w3.org/2000/svg">
    <mask id="8h5wq0gtga" style="mask-type:alpha" maskUnits="userSpaceOnUse" x="1" y="1" width="18" height="18">
        <path fill-rule="evenodd" clip-rule="evenodd" d="M1.616 1.616a1.25 1.25 0 0 1 1.768 0l15 15a1.25 1.25 0 0 1-1.768 1.768l-15-15a1.25 1.25 0 0 1 0-1.768z" fill="#ffffff"/>
        <path fill-rule="evenodd" clip-rule="evenodd" d="M18.384 1.616a1.25 1.25 0 0 0-1.768 0l-15 15a1.25 1.25 0 1 0 1.768 1.768l15-15a1.25 1.25 0 0 0 0-1.768z" fill="#ffffff"/>
    </mask>
    <g mask="url(#8h5wq0gtga)">
        <path fill="#032541" d="M0 0h20v20H0z"/>
    </g>
</svg>
