<svg width="12" height="12" viewBox="0 0 12 12" fill="none" xmlns="http://www.w3.org/2000/svg">
    <mask id="50jxfu9nha" style="mask-type:alpha" maskUnits="userSpaceOnUse" x="0" y="0" width="12" height="12">
        <path d="M11.284 4.969c.068.368.106.753.106 1.154 0 3.143-2.103 5.377-5.28 5.377a5.5 5.5 0 1 1 0-11c1.485 0 2.726.546 3.678 1.434l-1.55 1.55V3.48c-.577-.55-1.31-.832-2.128-.832-1.814 0-3.29 1.533-3.29 3.349 0 1.814 1.476 3.35 3.29 3.35 1.647 0 2.768-.94 2.998-2.233H6.11V4.969h5.174z" fill="#FCFCFC"/>
    </mask>
    <g mask="url(#50jxfu9nha)">
        <path fill="#FCFCFC" d="M.001 0h12v12h-12z"/>
    </g>
</svg>