<svg width="24" height="24" viewBox="0 0 24 24" fill="none" xmlns="http://www.w3.org/2000/svg">
    <mask id="opdxymeu6a" style="mask-type:alpha" maskUnits="userSpaceOnUse" x="2" y="2" width="20" height="20">
        <path d="M2.833 10.332A.833.833 0 0 1 2 9.5V2.833A.833.833 0 0 1 2.833 2h6.668a.833.833 0 0 1 .833.833V9.5a.834.834 0 0 1-.833.833H2.833zm11.668 0a.833.833 0 0 1-.833-.833V2.833A.833.833 0 0 1 14.5 2h6.666a.833.833 0 0 1 .833.833V9.5a.834.834 0 0 1-.833.833H14.5zM2.833 22A.833.833 0 0 1 2 21.167v-6.668a.833.833 0 0 1 .833-.833h6.668a.833.833 0 0 1 .833.833v6.668a.833.833 0 0 1-.833.833H2.833zm11.668 0a.833.833 0 0 1-.833-.833v-6.668a.833.833 0 0 1 .833-.833h6.666a.833.833 0 0 1 .833.833v6.668a.833.833 0 0 1-.833.833H14.5z" fill="#ffffff"/>
    </mask>
    <g mask="url(#opdxymeu6a)">
        <path fill="#D4D6DD" d="M0-.001h24v24H0z"/>
    </g>
</svg>
