<svg width="169" height="100" viewBox="0 0 169 100" fill="none" xmlns="http://www.w3.org/2000/svg">
    <g clip-path="url(#sxoh5umnva)">
        <path d="M63.525 43.56a19.404 19.404 0 0 0 1.557 7.717C69.36 61.41 81.06 66.162 91.22 61.897a20.001 20.001 0 0 0 6.36-4.264 18.946 18.946 0 0 0 3.311-4.465h7.495l-.296.776a27.478 27.478 0 0 1-4.039 6.599c-7.488 9.12-20.113 12.224-30.995 7.62-13.187-5.52-19.695-20.399-14.774-33.791C63.199 20.979 77.807 13.81 91.446 18.09c2.469.78 4.81 1.907 6.96 3.347a26.798 26.798 0 0 1 5.645 5.145c1.65 2 3.008 4.22 4.039 6.599a23.854 23.854 0 0 1 2.043 8.343H63.615a5.509 5.509 0 0 0-.094 1.022v1.015h.004zm38.437-7.47a19.752 19.752 0 0 0-7.202-8.974 20.221 20.221 0 0 0-22.582 0 19.744 19.744 0 0 0-7.2 8.974h36.984zM.113 70.376l1.683-.13c3.048 0 6.092-.013 9.136.013.515 0 .801-.169 1.077-.577 4.88-7.228 9.771-14.45 14.665-21.666a173240.36 173240.36 0 0 0 21.45-31.668c.107-.156.217-.378.344-.584a3.85 3.85 0 0 0-.48.007c-3.283 0-6.566 0-9.853-.007-.346 0-.52.16-.692.418-3.706 5.49-7.419 10.974-11.132 16.455-7.628 11.262-16.52 23.56-24.149 34.82-.831 1.227-1.124 1.545-2.049 2.919zM36.029 61.495c-4.052 0-8.107.007-12.16-.01-.495 0-.642.153-.638.64.023 2.511.023 5.016 0 7.52 0 .508.176.628.652.628 8.124-.01 16.248-.01 24.369 0 .449 0 .578-.133.575-.584-.02-2.488-.01-4.98-.01-7.471 0-.489-.244-.734-.732-.736l-12.06.006.004.007z" fill="#fff"/>
        <path d="M.013 24.396c.187.014.303.03.42.03 8.223 0 16.447.003 24.67.01.397 0 .543-.103.54-.514a712.809 712.809 0 0 1 0-7.57c0-.435-.113-.6-.576-.598-8.17.01-16.344.01-24.521 0-.43 0-.546.15-.546.568.017 2.524.01 5.045.013 7.57v.504z" fill="#D43545"/>
        <path d="M48.827 56.4v-7.637c-.246-.014-.462-.037-.679-.037-4.49 0-8.985 0-13.48-.01-.545 0-.728.106-.725.521.027 2.206.027 4.409 0 6.615 0 .418.146.557.739.554 4.494-.017 8.985-.01 13.48-.01h.662l.003.003zM123.839 51.29c-4.272-10.13.499-21.795 10.659-26.058 10.16-4.26 21.857.498 26.132 10.63a19.38 19.38 0 0 1 1.507 6.226H169V0h-6.813v27.18a21.342 21.342 0 0 0-8.56-7.279 24.377 24.377 0 0 0-11.388-3.012 26.112 26.112 0 0 0-10.412 2.09 26.729 26.729 0 0 0-14.252 14.215c-5.749 13.585.632 29.243 14.255 34.979a26.715 26.715 0 0 0 16.108 1.49v-7.014c-9.641 2.88-20.107-1.894-24.096-11.355l-.003-.003z" fill="#fff"/>
        <path d="M169 42.088h-6.863c.036.494.053.989.05 1.483a19.428 19.428 0 0 1-1.557 7.72 19.926 19.926 0 0 1-12.692 11.355v7.013c8.211-1.791 15.45-7.398 18.966-15.705A25.964 25.964 0 0 0 169 43.571v-1.483zM112.132 81.353c-1.587-1.924-3.896-2.976-6.577-2.976-5.815 0-10.037 4.422-10.037 10.516s4.205 10.676 9.997 10.676c1.501 0 2.878-.315 4.095-.936l.183-.093-.086-.182a4.592 4.592 0 0 1-.459-1.997v-1.357a1.718 1.718 0 0 1 0-.176l.023-.341-.316.136c-.738.318-1.56.477-2.448.477-3.341 0-5.676-2.534-5.676-6.167 0-3.632 2.282-6.09 5.552-6.09 3.51 0 5.872 2.527 5.872 6.286 0 .408-.03.796-.083 1.158l-.053.338.326-.11a4.747 4.747 0 0 1 4.617.896l.346.296V78.805h-5.273v2.544l-.003.004z" fill="#D43545"/>
        <path d="M84.716 78.808c-2.81 0-4.96 1.095-6.264 3.178v-2.743h-5.27v20.326h5.27V89.404c0-3.699 1.933-6.087 4.92-6.087 2.359 0 3.66 1.798 3.66 5.065V99.57h5.27V88.343c0-6.148-2.695-9.535-7.59-9.535h.004zM132.905 78.808c-2.812 0-4.961 1.095-6.265 3.178v-2.743h-5.273v20.326h5.273V89.404c0-3.699 1.933-6.087 4.921-6.087 2.358 0 3.659 1.798 3.659 5.065V99.57h5.27V88.343c0-6.148-2.695-9.535-7.589-9.535h.004zM154.652 78.808c-5.975 0-11.022 4.854-11.022 10.596 0 5.743 5.047 10.596 11.022 10.596 5.975 0 11.061-4.853 11.061-10.596 0-5.742-5.063-10.596-11.061-10.596zm5.752 10.596c0 3.39-2.525 6.048-5.749 6.048-3.224 0-5.712-2.657-5.712-6.048 0-3.39 2.508-6.047 5.712-6.047 3.204 0 5.749 2.657 5.749 6.047z" fill="#fff"/>
        <path d="M116.407 94.984v1.357a2.433 2.433 0 0 1-4.807.537 2.113 2.113 0 0 1-.063-.527v-1.357a2.422 2.422 0 0 1 2.428-2.435 2.434 2.434 0 0 1 2.439 2.428l.003-.003z" fill="#D43545"/>
    </g>
    <defs>
        <clipPath id="sxoh5umnva">
            <path fill="#fff" d="M0 0h169v100H0z"/>
        </clipPath>
    </defs>
</svg>
