<svg width="20" height="20" viewBox="0 0 20 20" fill="none" xmlns="http://www.w3.org/2000/svg">
    <mask id="bqet2rsh5a" style="mask-type:alpha" maskUnits="userSpaceOnUse" x="1" y="2" width="18" height="16">
        <path fill-rule="evenodd" clip-rule="evenodd" d="M1.667 3.75c0-.332.125-.65.348-.884.224-.234.526-.366.842-.366h14.286c.316 0 .618.132.842.366.223.235.348.552.348.884 0 .332-.125.65-.348.884a1.163 1.163 0 0 1-.842.366H2.857c-.316 0-.618-.132-.842-.366a1.282 1.282 0 0 1-.348-.884zm0 6.25c0-.332.125-.65.348-.884.224-.234.526-.366.842-.366h14.286c.316 0 .618.132.842.366.223.234.348.552.348.884 0 .331-.125.65-.348.884a1.162 1.162 0 0 1-.842.366H2.857c-.316 0-.618-.132-.842-.366A1.282 1.282 0 0 1 1.667 10zm0 6.25c0-.332.125-.65.348-.884.224-.234.526-.366.842-.366h14.286c.316 0 .618.132.842.366.223.234.348.552.348.884 0 .331-.125.65-.348.884a1.162 1.162 0 0 1-.842.366H2.857c-.316 0-.618-.132-.842-.366a1.282 1.282 0 0 1-.348-.884z" fill="#FCFCFC"/>
    </mask>
    <g mask="url(#bqet2rsh5a)">
        <path fill="#032541" d="M0 0h20v20H0z"/>
    </g>
</svg>
