<svg width="24" height="24" viewBox="0 0 24 24" fill="none" xmlns="http://www.w3.org/2000/svg">
    <g clip-path="url(#5l4w5uimua)">
        <mask id="yr00hpnceb" style="mask-type:alpha" maskUnits="userSpaceOnUse" x="0" y="0" width="25" height="24">
            <path d="M15.414 7.21a.987.987 0 0 1 0-1.41.987.987 0 0 1 1.41 0l1.3 1.28V1c0-.55.45-1 1-1s1 .45 1 1v6.05l1.3-1.27a.987.987 0 0 1 1.41.02c.39.4.38 1.03-.02 1.41l-2.24 2.18c-.82.81-2.15.81-2.96 0l-2.2-2.17v-.01zm8.7 3.79v10c0 1.65-1.35 3-3 3h-16c-2.76 0-5-2.24-5-5V9c-.01-2.72 2.22-5.01 5-5h7c.55 0 1 .45 1 1s-.45 1-1 1h-7c-.89 0-1.69.39-2.23 1a3 3 0 0 0 2.23 1h8.42c.13.23.28.44.48.63l2.19 2.17c1.5 1.58 4.27 1.59 5.77.03l1.59-1.55c.34.49.55 1.08.55 1.72zm-4 5c0-.83-.67-1.5-1.5-1.5s-1.5.67-1.5 1.5.67 1.5 1.5 1.5 1.5-.67 1.5-1.5z" fill="#FCFCFC"/>
        </mask>
        <g mask="url(#yr00hpnceb)">
            <path fill="#FF8503" d="M0 0h24v24H0z"/>
        </g>
    </g>
    <defs>
        <clipPath id="5l4w5uimua">
            <path fill="#fff" d="M0 0h24v24H0z"/>
        </clipPath>
    </defs>
</svg>
