<svg width="24" height="24" viewBox="0 0 24 24" fill="none" xmlns="http://www.w3.org/2000/svg">
    <mask id="78t0hnh13a" style="mask-type:alpha" maskUnits="userSpaceOnUse" x="0" y="0" width="24" height="24">
        <path d="M19 0H5C2.243 0 0 2.243 0 5v14c0 2.757 2.243 5 5 5h14c2.757 0 5-2.243 5-5V5c0-2.757-2.243-5-5-5zm0 20H9a1 1 0 0 1 0-2h10a1 1 0 0 1 0 2zm1.707-9.105a.997.997 0 0 1-1.414 0L18 9.602V15a1 1 0 0 1-2 0V9.602l-1.292 1.293a.997.997 0 0 1-1.414 0l-1.293-1.293V15a1 1 0 0 1-2 0V9.602L8.71 10.895A1 1 0 1 1 7.295 9.48l1.613-1.614a2.964 2.964 0 0 1 4.187 0l.907.907.907-.907a2.964 2.964 0 0 1 4.187 0L20.71 9.48a1 1 0 0 1 0 1.414h-.003z" fill="#FCFCFC"/>
    </mask>
    <g mask="url(#78t0hnh13a)">
        <path fill="#032541" d="M0 0h24v24H0z"/>
    </g>
</svg>
