<svg width="20" height="20" viewBox="0 0 20 20" fill="none" xmlns="http://www.w3.org/2000/svg">
    <g clip-path="url(#jbvn3vihia)">
        <mask id="dpq22xj9hb" style="mask-type:alpha" maskUnits="userSpaceOnUse" x="2" y="0" width="16" height="21">
            <path d="M13.333.25a4.14 4.14 0 0 1 1.566.97l1.38 1.382c.438.442.77.977.971 1.565h-3.917V.25zM17.5 5.834v10A4.172 4.172 0 0 1 13.333 20H6.667A4.172 4.172 0 0 1 2.5 15.834V4.167A4.172 4.172 0 0 1 6.667 0h5v4.167c0 .92.746 1.667 1.667 1.667H17.5zm-3.493 8.677a.833.833 0 0 0-1.164-.187l-.003.003a3.82 3.82 0 0 1-1.894.674 1.124 1.124 0 0 1-.72-.288 2.52 2.52 0 0 0-1.527-.545 4.88 4.88 0 0 0-2.538 1.005.833.833 0 1 0 1.011 1.323c.444-.348.97-.576 1.527-.662.205 0 .309.065.583.25a2.71 2.71 0 0 0 1.667.583 5.388 5.388 0 0 0 2.88-.994.833.833 0 0 0 .177-1.162zm.16-2.844a.833.833 0 0 0-.833-.833H6.667a.833.833 0 1 0 0 1.667h6.667c.46 0 .833-.374.833-.834zm0-3.333a.833.833 0 0 0-.833-.834H6.667a.833.833 0 0 0 0 1.667h6.667c.46 0 .833-.373.833-.833z" fill="#FFFFFF"/>
        </mask>
        <g mask="url(#dpq22xj9hb)">
            <path fill="#D4D6DD" d="M0 0h20v20H0z"/>
        </g>
    </g>
    <defs>
        <clipPath id="jbvn3vihia">
            <path fill="#fff" d="M0 0h20v20H0z"/>
        </clipPath>
    </defs>
</svg>
