<svg width="24" height="24" viewBox="0 0 24 24" fill="none" xmlns="http://www.w3.org/2000/svg">
    <mask id="7dum4c10ia" style="mask-type:alpha" maskUnits="userSpaceOnUse" x="0" y="0" width="24" height="25">
        <path d="M8 12c-3.31 0-6-2.69-6-6s2.69-6 6-6 6 2.69 6 6-2.69 6-6 6zm6.74 12a.993.993 0 0 1-.95-1.3l.94-3.02-2.38-1.93a.991.991 0 0 1-.29-1.11c.15-.39.52-.65.94-.65h3l1.06-2.98c.15-.39.52-.65.94-.65.42 0 .79.26.94.65L20 15.99h3c.42 0 .8.26.94.66.14.4.03.84-.3 1.11l-2.37 1.93.98 2.98c.13.4 0 .85-.34 1.11-.34.26-.8.28-1.16.05L18 22.04l-2.71 1.81c-.17.11-.36.17-.56.17l.01-.02zm-4.8 0H1c-.55 0-1-.45-1-1 0-4.96 4.04-9 9-9h.94a.999.999 0 0 1 .9 1.44 7.956 7.956 0 0 0-.83 3.56c0 1.25.28 2.44.83 3.56.15.31.14.68-.05.97-.19.29-.5.47-.85.47z" fill="#ffffff"/>
    </mask>
    <g mask="url(#7dum4c10ia)">
        <path fill="#D4D6DD" d="M0 0h24v24H0z"/>
    </g>
</svg>
