<svg width="24" height="24" viewBox="0 0 24 24" fill="none" xmlns="http://www.w3.org/2000/svg">
    <g clip-path="url(#g1gfb7ghza)">
        <mask id="ik3ci2ub2b" style="mask-type:alpha" maskUnits="userSpaceOnUse" x="0" y="0" width="24" height="24">
            <path d="m23.703 10.176-2.683-.8a9.31 9.31 0 0 0-.76-1.864l1.313-2.456a.487.487 0 0 0-.088-.576l-1.914-1.92a.488.488 0 0 0-.576-.088l-2.443 1.304a9.31 9.31 0 0 0-1.89-.8l-.8-2.648A.488.488 0 0 0 13.388 0h-2.707a.489.489 0 0 0-.464.344l-.8 2.64a9.318 9.318 0 0 0-1.907.8L5.11 2.488a.489.489 0 0 0-.577.088L2.587 4.472a.488.488 0 0 0-.089.576l1.298 2.4a9.299 9.299 0 0 0-.801 1.896l-2.65.8a.488.488 0 0 0-.345.464v2.704a.488.488 0 0 0 .344.464l2.667.8a9.29 9.29 0 0 0 .8 1.864l-1.313 2.512a.488.488 0 0 0 .089.576L4.5 21.44a.488.488 0 0 0 .577.088l2.474-1.32a9.327 9.327 0 0 0 1.842.752l.801 2.696a.487.487 0 0 0 .464.344h2.707a.489.489 0 0 0 .464-.344l.801-2.704a9.317 9.317 0 0 0 1.826-.752l2.49 1.328a.489.489 0 0 0 .577-.088l1.914-1.912a.488.488 0 0 0 .088-.576l-1.33-2.48a9.297 9.297 0 0 0 .761-1.832l2.7-.8a.489.489 0 0 0 .344-.464v-2.728a.488.488 0 0 0-.297-.472zM12.036 16.4a4.407 4.407 0 0 1-4.07-2.716 4.396 4.396 0 0 1 .955-4.795A4.406 4.406 0 0 1 16.441 12a4.398 4.398 0 0 1-4.405 4.4z" fill="#FFFFFF"/>
        </mask>
        <g mask="url(#ik3ci2ub2b)">
            <path fill="#D4D6DD" d="M0 0h24v24H0z"/>
        </g>
    </g>
    <defs>
        <clipPath id="g1gfb7ghza">
            <path fill="#fff" d="M0 0h24v24H0z"/>
        </clipPath>
    </defs>
</svg>
