<svg width="12" height="12" viewBox="0 0 12 12" fill="none" xmlns="http://www.w3.org/2000/svg">
    <mask id="kapgy9612a" style="mask-type:alpha" maskUnits="userSpaceOnUse" x="0" y="1" width="12" height="10">
        <path d="M10.374 3.74c.006.098.006.196.006.294 0 3.004-2.27 6.466-6.421 6.466v-.002A6.356 6.356 0 0 1 .5 9.48a4.509 4.509 0 0 0 3.34-.942A2.261 2.261 0 0 1 1.73 6.959c.339.066.687.052 1.02-.039A2.269 2.269 0 0 1 .94 4.693v-.029c.314.176.665.274 1.024.284a2.283 2.283 0 0 1-.699-3.033 6.394 6.394 0 0 0 4.652 2.374 2.285 2.285 0 0 1 .652-2.171 2.248 2.248 0 0 1 3.194.099c.505-.1.99-.287 1.433-.552a2.28 2.28 0 0 1-.993 1.258 4.512 4.512 0 0 0 1.297-.359 4.603 4.603 0 0 1-1.126 1.177z" fill="#FFFFFF"/>
    </mask>
    <g mask="url(#kapgy9612a)">
        <path fill="#FCFCFC" d="M0 0h12v12H0z"/>
    </g>
</svg>
