<svg width="115" height="48" viewBox="0 0 115 48" fill="none" xmlns="http://www.w3.org/2000/svg">
    <path d="M43.226 29.711a13.26 13.26 0 0 0 1.06 5.263c2.91 6.91 10.873 10.153 17.786 7.243a13.61 13.61 0 0 0 4.328-2.908 12.923 12.923 0 0 0 2.253-3.045h5.1l-.201.53a18.744 18.744 0 0 1-2.749 4.5 18.122 18.122 0 0 1-21.091 5.197c-8.974-3.765-13.402-13.913-10.054-23.048C43.004 14.31 52.945 9.42 62.227 12.338a18.52 18.52 0 0 1 4.736 2.283 18.263 18.263 0 0 1 3.841 3.51 18.863 18.863 0 0 1 2.749 4.5 16.294 16.294 0 0 1 1.39 5.69H43.287a3.766 3.766 0 0 0-.063.698v.692h.002zm26.156-5.095a13.465 13.465 0 0 0-4.901-6.121 13.733 13.733 0 0 0-15.367 0 13.46 13.46 0 0 0-4.898 6.12h25.166zM.077 48l1.145-.088c2.074 0 4.145-.01 6.216.009.351 0 .546-.115.734-.394 3.32-4.93 6.648-9.856 9.979-14.777 4.867-7.2 9.731-14.4 14.596-21.6.073-.106.147-.258.233-.398a2.608 2.608 0 0 0-.326.005c-2.234 0-4.468 0-6.705-.005-.235 0-.353.109-.47.285a8110.955 8110.955 0 0 1-7.575 11.223C12.713 29.942 6.662 38.33 1.47 46.01.905 46.846.706 47.063.077 48zM24.517 41.943c-2.757 0-5.517.004-8.274-.007-.337 0-.437.104-.435.437.016 1.713.016 3.42 0 5.13 0 .345.12.427.444.427 5.528-.007 11.056-.007 16.582 0 .306 0 .394-.09.392-.398-.014-1.697-.007-3.397-.007-5.096 0-.333-.166-.5-.498-.502l-8.206.004.002.005z" fill="#042541"/>
    <path d="M.01 16.64c.126.009.205.02.284.02 5.596 0 11.192.002 16.788.007.27 0 .37-.07.367-.35a493.72 493.72 0 0 1 0-5.164c0-.297-.077-.41-.392-.408-5.56.007-11.121.007-16.686 0-.292 0-.371.102-.371.387.011 1.722.007 3.442.01 5.164v.344z" fill="#D43545"/>
    <path d="M33.225 38.467V33.26c-.167-.01-.314-.025-.462-.025-3.056 0-6.114 0-9.172-.007-.372 0-.496.072-.494.355.018 1.505.018 3.007 0 4.512 0 .285.1.38.503.378 3.058-.011 6.114-.007 9.173-.007h.45l.002.002zM84.269 34.983c-2.907-6.91.34-14.866 7.253-17.773 6.913-2.905 14.873.34 17.782 7.25a13.24 13.24 0 0 1 1.025 4.246h4.67V0h-4.636v18.538a14.531 14.531 0 0 0-5.824-4.964 16.559 16.559 0 0 0-7.75-2.055 17.734 17.734 0 0 0-7.085 1.426 18.21 18.21 0 0 0-9.698 9.695c-3.912 9.266.43 19.946 9.7 23.858a18.142 18.142 0 0 0 10.962 1.016V42.73c-6.56 1.964-13.683-1.292-16.397-7.745l-.002-.002z" fill="#042541"/>
    <path d="M115 28.706h-4.671c.025.337.037.675.034 1.012.009 1.81-.35 3.6-1.059 5.265a13.572 13.572 0 0 1-8.636 7.745v4.783c5.587-1.222 10.513-5.046 12.905-10.711A17.746 17.746 0 0 0 115 29.718v-1.012z" fill="#D43545"/>
</svg>
