<svg width="60" height="60" viewBox="0 0 60 60" fill="none" xmlns="http://www.w3.org/2000/svg">
    <mask id="9uzk1wq7ga" style="mask-type:alpha" maskUnits="userSpaceOnUse" x="2" y="12" width="56" height="36">
        <path d="m28.718 38.123-5.175 5.246c-2.587 2.646-6.228 4.132-10.006 4.132H4.79c-1.26 0-2.29-.983-2.29-2.186V28.963c0-1.093.435-2.165 1.214-2.973l4.075-3.913c3.275-3.17 7.694-5.007 12.32-5.16a14.662 14.662 0 0 0-1.535 6.537v4.481l-5.015 3.717a2.125 2.125 0 0 0-.412 3.06 2.346 2.346 0 0 0 3.206.394l5.266-3.913c1.672-1.312 4.076-1.596 5.931-.525 2.862 1.64 3.274 5.247 1.145 7.455h.023zm19.623-8.11c0 2.404 2.06 4.371 4.58 4.371 2.518 0 4.579-1.967 4.579-4.372s-2.06-4.372-4.58-4.372c-2.518 0-4.579 1.967-4.579 4.372zm9.159 7.52v7.782c0 1.203-1.03 2.186-2.29 2.186H34.602c-2.518 0-4.854-.787-6.754-2.12l4.213-4.263a8.734 8.734 0 0 0 1.076-1.334 3.52 3.52 0 0 0 2.61 1.159c1.9 0 3.435-1.465 3.435-3.28 0-1.814-1.534-3.279-3.435-3.279-.389 0-.755.066-1.099.175 0-.328-.046-.677-.091-1.027-.413-2.755-2.084-5.181-4.603-6.624-2.06-1.18-4.488-1.53-6.8-1.093v-2.383c0-6.034 5.129-10.93 11.448-10.93H55.21c1.26 0 2.29.983 2.29 2.185v7.783a9.263 9.263 0 0 0-4.58-1.224c-5.06 0-9.159 3.913-9.159 8.744 0 4.832 4.1 8.745 9.16 8.745 1.671 0 3.228-.46 4.579-1.224v.021zM39.182 22.36c0-1.815-1.534-3.28-3.435-3.28-1.9 0-3.434 1.465-3.434 3.28 0 1.814 1.534 3.279 3.434 3.279 1.9 0 3.435-1.465 3.435-3.28z" fill="#ffffff"/>
    </mask>
    <g mask="url(#9uzk1wq7ga)">
        <path fill="#FF8503" d="M0 .001h60v60H0z"/>
    </g>
</svg>
