<svg width="60" height="60" viewBox="0 0 60 60" fill="none" xmlns="http://www.w3.org/2000/svg">
    <mask id="kkuiisniwa" style="mask-type:alpha" maskUnits="userSpaceOnUse" x="5" y="5" width="50" height="50">
        <path d="M7.084 25.83A2.084 2.084 0 0 1 5 23.748V7.084A2.083 2.083 0 0 1 7.084 5h16.668a2.083 2.083 0 0 1 2.083 2.084v16.663a2.083 2.083 0 0 1-2.083 2.084H7.084zm29.169 0a2.084 2.084 0 0 1-2.084-2.083V7.084A2.084 2.084 0 0 1 36.253 5h16.663A2.084 2.084 0 0 1 55 7.084v16.663a2.084 2.084 0 0 1-2.084 2.084H36.254zM7.083 55A2.084 2.084 0 0 1 5 52.916V36.248a2.083 2.083 0 0 1 2.084-2.083h16.668a2.083 2.083 0 0 1 2.083 2.083v16.669A2.083 2.083 0 0 1 23.752 55H7.084zm29.17 0a2.084 2.084 0 0 1-2.084-2.084V36.248a2.084 2.084 0 0 1 2.084-2.083h16.663A2.083 2.083 0 0 1 55 36.248v16.669A2.084 2.084 0 0 1 52.916 55H36.254z" fill="#ffffff"/>
    </mask>
    <g mask="url(#kkuiisniwa)">
        <path fill="#1573FE" d="M0-.003h60v60H0z"/>
    </g>
</svg>
