<svg width="16" height="16" viewBox="0 0 16 16" fill="none" xmlns="http://www.w3.org/2000/svg">
    <g clip-path="url(#ah6ipdj8wa)">
        <mask id="jc37j7shab" style="mask-type:alpha" maskUnits="userSpaceOnUse" x="0" y="0" width="17" height="16">
            <path d="M12 8c-2.207 0-4 1.793-4 4s1.793 4 4 4 4-1.793 4-4-1.793-4-4-4zm2.453 3.807-1.8 1.74c-.3.3-.7.446-1.1.446-.4 0-.8-.153-1.106-.446l-.9-.887a.658.658 0 0 1-.007-.94.658.658 0 0 1 .94-.007l.9.887a.25.25 0 0 0 .347 0l1.806-1.747a.664.664 0 1 1 .92.96v-.006zM8.48 16H4a3.335 3.335 0 0 1-3.333-3.333V7.333c0-.366.3-.666.666-.666h10.66A5.335 5.335 0 0 0 6.667 12c0 1.593.7 3.02 1.813 4zM2 5.333c-1.107 0-2-.893-2-2A3.335 3.335 0 0 1 3.333 0h9.48A3.338 3.338 0 0 1 16 3.48a1.978 1.978 0 0 1-2 1.853H2z" fill="#ffffff"/>
        </mask>
        <g mask="url(#jc37j7shab)">
            <path fill="#2F3036" d="M0 0h16v16H0z"/>
        </g>
    </g>
    <defs>
        <clipPath id="ah6ipdj8wa">
            <path fill="#fff" d="M0 0h16v16H0z"/>
        </clipPath>
    </defs>
</svg>
