<svg width="16" height="16" viewBox="0 0 16 16" fill="none" xmlns="http://www.w3.org/2000/svg">
    <g clip-path="url(#dve5bzytia)">
        <mask id="n08bdpedsb" style="mask-type:alpha" maskUnits="userSpaceOnUse" x="0" y="0" width="16" height="17">
            <path d="M5.333 8c-2.206 0-4-1.793-4-4s1.794-4 4-4c2.207 0 4 1.793 4 4s-1.793 4-4 4zm4.494 8a.662.662 0 0 1-.633-.867l.626-2.013-1.587-1.287a.66.66 0 0 1-.193-.74c.1-.26.347-.433.627-.433h2l.706-1.987a.671.671 0 0 1 1.254 0l.706 1.987h2c.28 0 .534.173.627.44.093.267.02.56-.2.74l-1.58 1.287.653 1.986a.672.672 0 0 1-1 .774L12 14.693 10.193 15.9a.682.682 0 0 1-.373.113L9.827 16zm-3.2 0H.667A.669.669 0 0 1 0 15.333c0-3.306 2.693-6 6-6h.627a.666.666 0 0 1 .6.96 5.304 5.304 0 0 0-.554 2.374c0 .833.187 1.626.554 2.373.1.207.093.453-.034.647a.674.674 0 0 1-.566.313z" fill="#ffffff"/>
        </mask>
        <g mask="url(#n08bdpedsb)">
            <path fill="#2F3036" d="M0 0h16v16H0z"/>
        </g>
    </g>
    <defs>
        <clipPath id="dve5bzytia">
            <path fill="#fff" d="M0 0h16v16H0z"/>
        </clipPath>
    </defs>
</svg>
