<svg width="16" height="16" viewBox="0 0 16 16" fill="none" xmlns="http://www.w3.org/2000/svg">
    <mask id="s7or6le58a" style="mask-type:alpha" maskUnits="userSpaceOnUse" x="0" y="0" width="16" height="16">
        <path d="M12.666 0H3.333A3.337 3.337 0 0 0 0 3.333v9.334A3.337 3.337 0 0 0 3.333 16h9.334A3.337 3.337 0 0 0 16 12.667V3.333A3.337 3.337 0 0 0 12.667 0zm0 13.333H6A.667.667 0 0 1 6 12h6.666a.667.667 0 0 1 0 1.333zm1.138-6.07a.665.665 0 0 1-.942 0L12 6.401v3.6a.667.667 0 0 1-1.333 0V6.4l-.862.862a.665.665 0 0 1-.942 0L8 6.401v3.6a.667.667 0 0 1-1.333 0V6.4l-.862.862a.666.666 0 1 1-.943-.942l1.076-1.076c.77-.77 2.021-.77 2.791 0l.605.604.604-.604c.77-.77 2.022-.77 2.792 0l1.076 1.075c.26.261.26.682 0 .943h-.002z" fill="#ffffff"/>
    </mask>
    <g mask="url(#s7or6le58a)">
        <path fill="#17AE7B" d="M0 0h16v16H0z"/>
    </g>
</svg>
