<svg width="16" height="16" viewBox="0 0 16 16" fill="none" xmlns="http://www.w3.org/2000/svg">
    <mask id="dsf0hcf8ia" style="mask-type:alpha" maskUnits="userSpaceOnUse" x="0" y="0" width="16" height="16">
        <path d="M16 4.666v.667H0v-.667a3.334 3.334 0 0 1 3.333-3.333H4V.667a.667.667 0 0 1 1.333 0v.666h5.334V.667a.667.667 0 0 1 1.333 0v.666h.666A3.334 3.334 0 0 1 16 4.667zm0 6.667A4.672 4.672 0 0 1 11.333 16a4.672 4.672 0 0 1-4.666-4.667 4.672 4.672 0 0 1 4.666-4.666A4.672 4.672 0 0 1 16 11.333zm-3.333.39L12 11.058V10a.667.667 0 0 0-1.333 0v1.333c0 .177.07.347.195.472l.862.862a.667.667 0 0 0 .943-.943zm-7.334-.39c0-1.886.872-3.566 2.233-4.666H0v6A3.334 3.334 0 0 0 3.333 16h4.233a5.986 5.986 0 0 1-2.233-4.667z" fill="#ffffff"/>
    </mask>
    <g mask="url(#dsf0hcf8ia)">
        <path fill="#71727a" d="M0 0h16v16H0z"/>
    </g>
</svg>
