<svg width="24" height="24" viewBox="0 0 24 24" fill="none" xmlns="http://www.w3.org/2000/svg">
    <mask id="qdlcue7oka" style="mask-type:alpha" maskUnits="userSpaceOnUse" x="3" y="0" width="18" height="24">
        <path d="M17 11H7c-2.21 0-4 1.79-4 4v8c0 .55.45 1 1 1h16c.55 0 1-.45 1-1v-8c0-2.21-1.79-4-4-4zM9 21c0 .55-.45 1-1 1s-1-.45-1-1v-1c0-.55.45-1 1-1s1 .45 1 1v1zm0-5c0 .55-.45 1-1 1s-1-.45-1-1v-1c0-.55.45-1 1-1s1 .45 1 1v1zm4 5c0 .55-.45 1-1 1s-1-.45-1-1v-1c0-.55.45-1 1-1s1 .45 1 1v1zm0-5c0 .55-.45 1-1 1s-1-.45-1-1v-1c0-.55.45-1 1-1s1 .45 1 1v1zm4 5c0 .55-.45 1-1 1s-1-.45-1-1v-1c0-.55.45-1 1-1s1 .45 1 1v1zm0-5c0 .55-.45 1-1 1s-1-.45-1-1v-1c0-.55.45-1 1-1s1 .45 1 1v1zm1-8.5V9H6V7.5C6 5.57 7.57 4 9.5 4H11V1c0-.55.45-1 1-1s1 .45 1 1v3h1.5C16.43 4 18 5.57 18 7.5z" fill="#ffffff"/>
    </mask>
    <g mask="url(#qdlcue7oka)">
        <path fill="#909EAB" d="M0 0h24v24H0z"/>
    </g>
</svg>
