<svg width="16" height="16" viewBox="0 0 16 16" fill="none" xmlns="http://www.w3.org/2000/svg">
    <mask id="qtf3bwujya" style="mask-type:alpha" maskUnits="userSpaceOnUse" x="0" y="0" width="17" height="16">
        <path d="M12.667 12h3.026a4.69 4.69 0 0 1-1.06 1.64l-.986.987a4.696 4.696 0 0 1-1.64 1.06V12.66c0-.367.3-.667.666-.667l-.006.007zM16 3.333v7.007c0 .107-.007.213-.013.327h-3.32c-1.1 0-2 .9-2 2v3.32c-.107.006-.214.013-.327.013H3.333A3.335 3.335 0 0 1 0 12.667V3.333A3.335 3.335 0 0 1 3.333 0h9.334A3.335 3.335 0 0 1 16 3.333z" fill="#ffffff"/>
    </mask>
    <g mask="url(#qtf3bwujya)">
        <path fill="#C5C6CC" d="M0 0h16v16H0z"/>
    </g>
</svg>
