<svg width="16" height="16" viewBox="0 0 16 16" fill="none" xmlns="http://www.w3.org/2000/svg">
    <mask id="8qn6zi4v1a" style="mask-type:alpha" maskUnits="userSpaceOnUse" x="0" y="0" width="16" height="16">
        <path d="m15.633 14.22-1.48 1.573a.68.68 0 0 1-.947.027.664.664 0 0 1-.026-.94l.827-.873H12a.669.669 0 0 1-.667-.667c0-.367.3-.667.667-.667h2.007l-.827-.873a.664.664 0 1 1 .967-.913l1.493 1.586a1.248 1.248 0 0 1-.013 1.754l.006-.007zM1.847 5.127a.68.68 0 0 0 .947.027.664.664 0 0 0 .026-.94l-.827-.874H4c.367 0 .667-.3.667-.667 0-.366-.3-.666-.667-.666H1.993l.827-.874A.664.664 0 1 0 1.853.22L.367 1.78a1.248 1.248 0 0 0-.014 1.753L1.847 5.12v.007zM10.333 0a5.67 5.67 0 0 0-5.666 5.667 5.67 5.67 0 0 0 5.666 5.666A5.67 5.67 0 0 0 16 5.667 5.67 5.67 0 0 0 10.333 0zm0 12.667a7 7 0 0 1-7-7c0-.074.007-.154.014-.227A5.501 5.501 0 0 0 0 10.5C0 13.54 2.467 16 5.5 16c2.273 0 4.22-1.38 5.06-3.347-.073 0-.153.014-.227.014z" fill="#ffffff"/>
    </mask>
    <g mask="url(#8qn6zi4v1a)">
        <path d="M0 0h16v16H0V0z" fill="#909EAB"/>
    </g>
</svg>
