<svg width="20" height="20" viewBox="0 0 20 20" fill="none" xmlns="http://www.w3.org/2000/svg">
    <mask id="pkom0j625a" style="mask-type:alpha" maskUnits="userSpaceOnUse" x="1" y="0" width="18" height="20">
        <path d="M2.5 3.333h2.583A4.174 4.174 0 0 1 9.167 0h1.666a4.174 4.174 0 0 1 4.083 3.333H17.5A.833.833 0 0 1 17.5 5h-.833v10.833A4.172 4.172 0 0 1 12.5 20h-5a4.172 4.172 0 0 1-4.167-4.167V5H2.5a.833.833 0 0 1 0-1.666zm8.333 10.834a.833.833 0 0 0 1.667 0v-5a.833.833 0 1 0-1.667 0v5zm-3.333 0a.833.833 0 1 0 1.667 0v-5a.833.833 0 0 0-1.667 0v5zm5.69-10.834a2.505 2.505 0 0 0-2.357-1.667H9.167a2.505 2.505 0 0 0-2.358 1.667h6.382z" fill="#fff"/>
    </mask>
    <g mask="url(#pkom0j625a)">
        <path fill="#ED3241" d="M0 0h20v20H0z"/>
    </g>
</svg>
