<svg width="24" height="24" viewBox="0 0 24 24" fill="none" xmlns="http://www.w3.org/2000/svg">
    <g clip-path="url(#zebc5d35fa)">
        <mask id="v1cdkb58bb" style="mask-type:alpha" maskUnits="userSpaceOnUse" x="3" y="0" width="19" height="25">
            <path d="M16 .3c.706.242 1.348.64 1.88 1.164l1.655 1.658A4.95 4.95 0 0 1 20.7 5H16V.3zM21 7v12a5.006 5.006 0 0 1-5 5H8a5.006 5.006 0 0 1-5-5V5a5.006 5.006 0 0 1 5-5h6v5a2 2 0 0 0 2 2h5zm-4.192 10.414a1 1 0 0 0-1.396-.225l-.004.003a4.585 4.585 0 0 1-2.273.809 1.35 1.35 0 0 1-.864-.345 3.023 3.023 0 0 0-1.832-.655 5.858 5.858 0 0 0-3.046 1.206 1 1 0 1 0 1.214 1.588A3.952 3.952 0 0 1 10.439 19c.246 0 .37.078.7.3.57.45 1.274.696 2 .7a6.465 6.465 0 0 0 3.456-1.193 1 1 0 0 0 .213-1.394zM17 14a1 1 0 0 0-1-1H8a1 1 0 0 0 0 2h8a1 1 0 0 0 1-1zm0-4a1 1 0 0 0-1-1H8a1 1 0 0 0 0 2h8a1 1 0 0 0 1-1z" fill="#FFFFFF"/>
        </mask>
        <g mask="url(#v1cdkb58bb)">
            <path fill="#17AE7B" d="M0 0h24v24H0z"/>
        </g>
    </g>
    <defs>
        <clipPath id="zebc5d35fa">
            <path fill="#fff" d="M0 0h24v24H0z"/>
        </clipPath>
    </defs>
</svg>
