<svg width="16" height="16" viewBox="0 0 16 16" fill="none" xmlns="http://www.w3.org/2000/svg">
    <g clip-path="url(#hcvpzga6wa)">
        <path d="M16 8a8 8 0 1 0-9.932 7.764v-5.32h-1.65V8h1.65V6.947c0-2.723 1.232-3.985 3.905-3.985.507 0 1.382.1 1.74.198v2.216c-.19-.02-.518-.03-.925-.03-1.312 0-1.818.498-1.818 1.79V8h2.613l-.45 2.445H8.97v5.496A8 8 0 0 0 16 8z" fill="#0866FF"/>
        <path d="M11.133 10.444 11.583 8H8.968v-.864c0-1.292.507-1.79 1.819-1.79.407 0 .735.01.924.03V3.16c-.358-.1-1.232-.2-1.74-.2-2.672 0-3.905 1.263-3.905 3.986v1.053h-1.65v2.445h1.65v5.32a8.014 8.014 0 0 0 2.902.177v-5.497h2.164z" fill="#fff"/>
    </g>
    <defs>
        <clipPath id="hcvpzga6wa">
            <path fill="#fff" d="M0 0h16v16H0z"/>
        </clipPath>
    </defs>
</svg>
