<svg width="16" height="16" viewBox="0 0 16 16" fill="none" xmlns="http://www.w3.org/2000/svg">
    <mask id="q57opeyyra" style="mask-type:alpha" maskUnits="userSpaceOnUse" x="0" y="0" width="16" height="16">
        <path d="M12.667 0H3.333A3.337 3.337 0 0 0 0 3.333v9.334A3.337 3.337 0 0 0 3.333 16h9.334A3.337 3.337 0 0 0 16 12.667V3.333A3.337 3.337 0 0 0 12.667 0zM8 12.667a1 1 0 1 1 0-2.001 1 1 0 0 1 0 2zm1.285-4.342c-.347.192-.618.635-.618 1.008a.666.666 0 1 1-1.334 0c0-.856.538-1.75 1.309-2.176a1.33 1.33 0 0 0 .67-1.416 1.349 1.349 0 0 0-1.065-1.064 1.328 1.328 0 0 0-1.104.29 1.33 1.33 0 0 0-.476 1.022.667.667 0 0 1-1.334 0c0-.79.348-1.535.953-2.043a2.688 2.688 0 0 1 2.191-.582 2.684 2.684 0 0 1 2.148 2.147 2.681 2.681 0 0 1-1.34 2.814z" fill="#fff"/>
    </mask>
    <g mask="url(#q57opeyyra)">
        <path fill="#324E64" d="M-4 0h24v16H-4z"/>
    </g>
</svg>
