<svg width="16" height="16" viewBox="0 0 16 16" fill="none" xmlns="http://www.w3.org/2000/svg">
    <g clip-path="url(#liiap2yy6a)">
        <mask id="v3x78r94xb" style="mask-type:alpha" maskUnits="userSpaceOnUse" x="0" y="0" width="16" height="16">
            <circle cx="8" cy="8.001" r="7.333" fill="#D9D9D9"/>
        </mask>
        <g mask="url(#v3x78r94xb)">
            <path fill="#324E64" d="M0 0h16v16H0z"/>
        </g>
        <path fill-rule="evenodd" clip-rule="evenodd" d="M6.422 7.207c0-.368.299-.667.667-.667H8c.368 0 .667.299.667.667v3.105h.804a.667.667 0 1 1 0 1.333H6.529a.667.667 0 0 1 0-1.333h.804V7.874H7.09a.667.667 0 0 1-.667-.667z" fill="#FCFCFC"/>
        <path d="M8.822 5.224a.872.872 0 1 1-1.745 0 .872.872 0 0 1 1.745 0z" fill="#FCFCFC"/>
    </g>
    <defs>
        <clipPath id="liiap2yy6a">
            <path fill="#fff" d="M0 0h16v16H0z"/>
        </clipPath>
    </defs>
</svg>
