<svg width="16" height="16" viewBox="0 0 16 16" fill="none" xmlns="http://www.w3.org/2000/svg">
    <mask id="381csylvia" style="mask-type:alpha" maskUnits="userSpaceOnUse" x="2" y="0" width="13" height="16">
        <path d="M10.667.2c.47.161.898.427 1.252.776l1.104 1.105a3.3 3.3 0 0 1 .777 1.252h-3.133V.2zM14 4.667v8A3.337 3.337 0 0 1 10.667 16H5.333A3.338 3.338 0 0 1 2 12.667V3.333A3.338 3.338 0 0 1 5.333 0h4v3.333c0 .737.597 1.334 1.334 1.334H14zm-2.795 6.942a.666.666 0 0 0-.93-.15c-.002 0-.002.001-.003.002a3.056 3.056 0 0 1-1.515.54.899.899 0 0 1-.576-.23 2.016 2.016 0 0 0-1.222-.437c-.74.07-1.444.348-2.03.804a.667.667 0 1 0 .809 1.058c.355-.278.775-.46 1.221-.53.164 0 .247.053.467.2.38.3.849.465 1.333.467a4.31 4.31 0 0 0 2.304-.795.666.666 0 0 0 .142-.93zm.128-2.276a.667.667 0 0 0-.666-.666H5.333a.667.667 0 0 0 0 1.333h5.334a.667.667 0 0 0 .666-.667zm0-2.666A.667.667 0 0 0 10.667 6H5.333a.667.667 0 0 0 0 1.333h5.334a.667.667 0 0 0 .666-.666z" fill="#ffffff"/>
    </mask>
    <g mask="url(#381csylvia)">
        <path fill="#C5C6CC" d="M0 0h16v16H0z"/>
    </g>
</svg>
