<svg width="40" height="40" viewBox="0 0 40 40" fill="none" xmlns="http://www.w3.org/2000/svg">
    <g clip-path="url(#syfp8ch7da)">
        <path d="m18.347 16 5.323 8H40v-8H18.347z" fill="#003057"/>
        <path d="M27.224 20.751a.821.821 0 0 1-.24.624.914.914 0 0 1-.65.225h-1.103v-3.1h1.078a.928.928 0 0 1 .645.21c.154.159.235.38.222.608a.778.778 0 0 1-.119.427.633.633 0 0 1-.333.26c.152.042.284.14.375.275.085.14.128.305.125.471zm-.946-.88a.65.65 0 0 0 .435-.136.483.483 0 0 0 .157-.4.53.53 0 0 0-.153-.403.644.644 0 0 0-.434-.135h-.738v1.073h.733zm.639.858a.537.537 0 0 0-.158-.422.666.666 0 0 0-.455-.145h-.76v1.146h.755a.643.643 0 0 0 .456-.149.557.557 0 0 0 .162-.43zM27.867 21.6h-.328l1.07-3.1h.26l1.07 3.1h-.333l-.247-.745h-1.246l-.246.745zm.334-1.024h1.07l-.537-1.618-.534 1.618zM32.142 21.6l-1.521-2.498V21.6h-.312v-3.1h.312l1.52 2.49V18.5h.312v3.1h-.311zM33.446 21.6h-.31v-3.1h.31v1.807l1.36-1.807h.37l-.928 1.209 1.06 1.892h-.362l-.898-1.642-.602.788v.854z" fill="#fff"/>
        <path d="M0 16v7.999h23.67L18.347 16H0z" fill="#80BC00"/>
        <path d="M7.388 17.24c-.054-.39-.276-.276-.246-.407.01-.042-.033-.21-.268-.21H2.27v2.821a.399.399 0 0 0 .256-.051c.144-.183.273-.424.505-.47a.214.214 0 0 1 .207.038c-.024.056-.094.048-.143.067a.744.744 0 0 0-.415.285.043.043 0 0 0 .009.047.159.159 0 0 0 .052-.008c.077-.059.151-.14.255-.117a.027.027 0 0 1 .019.032c0 .004-.003.006-.004.009a.823.823 0 0 1-.233.143c-.104.089-.395.163-.431.313.05.01.1.016.15.018.135.01.17-.158.273-.234.04-.027.09-.063.137-.038.005.024-.012.037-.017.054-.122.134-.273.216-.393.352-.037.043-.198.09-.222.134v.524a1.79 1.79 0 0 1 .53-.495c.019 0 .05-.013.064.01.015.022 0 .071 0 .103-.074.136-.179.257-.243.395a.303.303 0 0 1 .039-.176c0-.01.01-.03 0-.039-.055 0-.082.066-.1.106-.067.174-.262.352-.292.542v2.39h1.452c.09-.08.169-.175.233-.28.066-.096.082-.225.162-.307.014 0 .022-.011.036 0a.406.406 0 0 1-.03.311c-.022.061-.074.107-.076.179 0 .019.04.02.058 0 .148-.128.172-.344.222-.536.007-.008.007-.028.021-.026.02.022.011.064.007.093-.004.028-.02.055-.013.08.07.031.077-.08.11-.125.01 0 .024.008.026.022a.324.324 0 0 1-.097.26c-.025.024-.086.038-.073.08.014.04.06.025.087.018.007 0 .012.01 0 .027a.88.88 0 0 1-.179.2h.273c.147-.1.277-.224.385-.37l.017-.01c.072-.108.14-.22.21-.33.072-.11.13-.253.09-.404-.033-.084-.121-.05-.186-.047a.236.236 0 0 1-.092-.065c-.013-.024-.007-.062-.03-.076-.066-.02-.111.043-.165.091-.019.01-.042.032-.059.018 0-.139.118-.222.14-.352 0-.025-.023-.037-.04-.052-.09 0-.132.094-.195.148h-.028a.093.093 0 0 1-.017-.076.524.524 0 0 1 .112-.229c.2-.337.636-.333.636-.333.414 0 .691.282.76.282a.086.086 0 0 0 .055-.095c0-.061-.03-.128-.068-.134-.019 0 .028.054-.068.031-.365-.087-.626-.351-.603-.586.023-.235-.026-.352.395-.537.06-.026.148-.026.132-.2 0 0-.014-.052-.048-.052a.04.04 0 0 0-.04.037s.022.042-.035.042c-.056 0-.026-.068-.167-.068a.345.345 0 0 0-.154.025.395.395 0 0 1-.169.026.34.34 0 0 1-.163-.03.418.418 0 0 0-.161-.023c-.138 0-.117.07-.167.07-.028 0-.037-.022-.03-.055.007-.032.024-.036-.062-.098a.122.122 0 0 1-.028-.15.76.76 0 0 0 .097-.28c.016-.118-.178-.352-.215-.423-.062-.117 0-.172-.233-.2a.324.324 0 0 1-.312-.274c0-.014.006-.04.043-.02.079.045.142.204.267.204.124 0 .263.027.288.08.055.117.11.144.146.147.09.007-.026-.204.007-.242.033-.037.052-.019.082-.011a.39.39 0 0 1 .222.13c.01.02.076.009.085-.03.044-.186.101-.18.183-.166.064.01.086.014.086.117-.006.04.02.079.059.085.012.002.025 0 .036-.005.075-.019.111-.178.196-.186.019 0 .03 0 .037.02.006.02-.065.084-.044.128.021.045.037-.02.062-.007.06.032.023.172.082.168.058-.004.062-.061.1-.117a.215.215 0 0 1 .122-.085c.13-.036.256-.082.38-.138.277-.162.104-.596-.12-.872-.055-.068.026-.124.095-.051.134.14.2.352.3.352.18-.029.347-.104.49-.22a.811.811 0 0 0 .198-.639m-3.243 3.454c.094-.185.459-.487.65-.43a.521.521 0 0 1 .379.483c.035.422-.47.672-.497.656-.027-.017.007-.037 0-.06a.028.028 0 0 0-.027-.02c-.11.007-.118.165-.19.234-.023 0-.035-.018-.053-.029-.041-.068.064-.064.079-.117.009-.033.01-.079-.012-.098a.064.064 0 0 0-.083 0c-.04.03-.042.118-.096.092a.123.123 0 0 1-.023-.094c.055-.072.157-.057.167-.166 0-.066.055-.06.088-.072.033-.013.037-.059.048-.094.025-.078.096-.063.102-.107a.06.06 0 0 0-.027-.064.111.111 0 0 0-.084.026c-.02.015-.008.054-.035.069a.436.436 0 0 1-.093.03c-.049.017-.05.069-.061.117 0 .026-.057.016-.078.023-.048.013-.061.067-.079.117 0 0 0 .01-.009.01s-.037-.02-.05-.033a.038.038 0 0 1-.009-.047.065.065 0 0 1 .033-.026.068.068 0 0 0 .043-.08c-.016-.06.054-.082.057-.105a.055.055 0 0 0-.026-.053c-.043-.03-.077.025-.119.042-.012 0-.034-.017-.04-.035a.37.37 0 0 1 .045-.169zm-.395-3.837a.847.847 0 0 1 .502.352c.096.157.13.365.306.469a.21.21 0 0 0 .079.05.25.25 0 0 1-.111-.034c-.016 0-.03-.028-.05-.012-.018.017 0 .02-.006.03-.006.01.027.022.04.036a.3.3 0 0 0-.024.03c-.182-.076-.2-.29-.295-.436a.676.676 0 0 0-.175-.234.036.036 0 0 0-.032.02c.015.038.052.066.07.102.06.086.09.19.088.297-.012.011 0 .031-.023.034-.023.004-.047-.014-.059-.034-.095-.133-.098-.316-.222-.428a.011.011 0 0 1-.009 0c-.042.04 0 .102 0 .155v.038a.687.687 0 0 0-.302-.35.58.58 0 0 0-.495.147c-.005.003-.012.002-.015-.004-.001-.002-.002-.006-.001-.01.008-.075.148-.35.734-.214m-.099.912c-.204-.067-.382-.204-.576-.292-.036-.009-.08-.027-.111 0-.033.026.03.045.044.069a.463.463 0 0 0-.263.035c-.018 0-.043.007-.056-.01-.006-.05.042-.092.072-.128a.397.397 0 0 1 .31-.118.629.629 0 0 1 .35.118c.166.103.301.266.457.385a.91.91 0 0 1-.234-.06m1.202.564c.015.089-.04.29-.072.292-.057 0-.06-.063-.073-.15-.013-.086.058-.196-.017-.225-.112.006-.06.188-.145.187-.045 0-.093-.052-.152-.07-.297-.087-.417.173-.475.163-.104-.026-.02-.095 0-.13a.773.773 0 0 1 .422-.23c.12-.03.202-.11.375-.11.177.026.13.19.144.268m1.545-.037a.08.08 0 0 1 .04.086c-.009.046-.038.017-.072.007-.188-.053-.239-.037-.348.032-.074.047-.093-.037-.122-.095-.012-.022-.043-.067-.069-.052-.026.016-.012.093 0 .118a.165.165 0 0 1-.063.16c-.043 0-.047-.023-.068-.06-.062-.118-.083-.353.041-.398a.408.408 0 0 1 .374.086c.092.053.19.093.29.118m0-1.173a.34.34 0 0 1 .377-.153.457.457 0 0 1 .161.088c0 .04.05.043.056.08l-.007.006c-.172-.066-.414-.124-.587-.016m.488.374a.814.814 0 0 1-.222-.05c.104-.055.277-.176.369-.02-.022.064-.092.06-.147.07z" fill="#1B2B4C"/>
        <path d="M9.766 21.6h-.702l-.99-1.494V21.6h-.578v-3.2h.579v1.354L9.133 18.4h.545L8.6 19.81l1.166 1.79zM11.302 21.65c-.964 0-1.494-.587-1.494-1.66 0-.52.111-.926.345-1.213.242-.288.594-.447.959-.431.258.018.515.052.77.102l.09.016v.596l-.457-.29a.868.868 0 0 0-.399-.105h-.004c-.578 0-.667.71-.674 1.329-.007.52.096.909.296 1.124.139.143.328.22.522.21.217.003.43-.065.607-.196l.213-.156-.084.536-.051.026a1.754 1.754 0 0 1-.64.117M13.613 21.6h-1.051v-3.2h.968c.222-.017.444.035.639.148.192.13.285.338.285.636a.757.757 0 0 1-.184.537l-.076.08.086.07c.203.161.31.43.31.778a.913.913 0 0 1-.308.718 1.027 1.027 0 0 1-.667.234m-.474-.323h.284c.445 0 .582-.153.582-.654 0-.34-.25-.493-.498-.493h-.368v1.147zm0-1.642h.293a.521.521 0 0 0 .277-.065c.1-.066.148-.188.148-.373 0-.44-.223-.478-.478-.478h-.24v.916z" fill="#fff"/>
    </g>
    <defs>
        <clipPath id="syfp8ch7da">
            <path fill="#fff" transform="translate(0 16)" d="M0 0h40v8H0z"/>
        </clipPath>
    </defs>
</svg>
