<svg width="16" height="16" viewBox="0 0 16 16" fill="none" xmlns="http://www.w3.org/2000/svg">
    <g clip-path="url(#znyie1vcqa)">
        <path d="M14.819 0H1.18A1.181 1.181 0 0 0 0 1.181V14.82A1.181 1.181 0 0 0 1.181 16H14.82A1.181 1.181 0 0 0 16 14.819V1.18A1.181 1.181 0 0 0 14.819 0zM4.769 13.63H2.363V5.989H4.77v7.641zm-1.205-8.7a1.381 1.381 0 1 1 1.39-1.38 1.361 1.361 0 0 1-1.39 1.38zm10.072 8.707H11.23V9.462c0-1.23-.523-1.61-1.199-1.61-.713 0-1.413.537-1.413 1.641v4.144H6.213V5.994h2.314v1.06h.03c.233-.47 1.046-1.274 2.287-1.274 1.343 0 2.793.797 2.793 3.13l-.001 4.727z" fill="#0A66C2"/>
    </g>
    <defs>
        <clipPath id="znyie1vcqa">
            <path fill="#fff" d="M0 0h16v16H0z"/>
        </clipPath>
    </defs>
</svg>
