<svg width="12" height="12" viewBox="0 0 12 12" fill="none" xmlns="http://www.w3.org/2000/svg">
    <mask id="q7ojqrof9a" style="mask-type:alpha" maskUnits="userSpaceOnUse" x="1" y="1" width="10" height="10">
        <path fill-rule="evenodd" clip-rule="evenodd" d="M1 2.25a.77.77 0 0 1 .21-.53.697.697 0 0 1 .504-.22h8.572c.19 0 .37.079.505.22a.77.77 0 0 1 .209.53.77.77 0 0 1-.21.53.698.698 0 0 1-.504.22H1.714a.697.697 0 0 1-.505-.22A.77.77 0 0 1 1 2.25zM1 6a.77.77 0 0 1 .21-.53.697.697 0 0 1 .504-.22h8.572c.19 0 .37.079.505.22A.77.77 0 0 1 11 6a.77.77 0 0 1-.21.53.698.698 0 0 1-.504.22H1.714a.697.697 0 0 1-.505-.22A.77.77 0 0 1 1 6zm0 3.75a.77.77 0 0 1 .21-.53.697.697 0 0 1 .504-.22h8.572c.19 0 .37.079.505.22a.77.77 0 0 1 .209.53.77.77 0 0 1-.21.53.697.697 0 0 1-.504.22H1.714a.697.697 0 0 1-.505-.22A.77.77 0 0 1 1 9.75z" fill="#FCFCFC"/>
    </mask>
    <g mask="url(#q7ojqrof9a)">
        <path fill="#032541" d="M0 0h12v12H0z"/>
    </g>
</svg>
