<svg width="40" height="40" viewBox="0 0 40 40" fill="none" xmlns="http://www.w3.org/2000/svg">
    <path d="M8.378 19.075c-.008-.9-.004-1.802-.004-2.702v-.756c.003-.576.496-1.02 1.146-1.023 1.219-.004 2.438 0 3.656 0 .263 0 .267-.003.268-.231v-.402c.002-.308.161-.46.483-.461.306 0 .494.171.494.459 0 1.18.006 2.359-.004 3.537l.002 1.65c.004 2.103.005 4.205.002 6.307 0 .53-.36.926-.94 1.03a1.313 1.313 0 0 1-.234.017H9.555c-.695 0-1.181-.437-1.181-1.058v-5.695c0-.263.005-.512.004-.672zm5.357-.55c0-.219.002-1.463 0-1.638-.008-.511-.517-.97-1.092-.974-.827-.005-1.654-.005-2.48 0-.586.003-1.097.46-1.1.983-.005.628-.05 1.78-.049 2.407 0 .054 4.234-.524 4.722-.778h-.001zm-4.674 1.08v.863c0 .57.492 1.033 1.132 1.042.802.01 1.605.01 2.407 0 .628-.012 1.132-.467 1.135-1.025.003-.333 0-.665 0-.997 0-.055.01-.258.002-.331-1.518.564-3.085.652-4.676.448z" fill="#D7E4D2"/>
    <path d="M5.824 18.145c-.19.348-.357.654-.52.96-.332.615-.664 1.229-.991 1.844-.058.108-.144.147-.272.145-.23-.004-.46-.007-.689 0-.148.005-.229-.048-.292-.165-.464-.867-.934-1.731-1.403-2.596a.346.346 0 0 0-.128-.138v3.226c0 .22-.007.225-.254.226-.356 0-.713-.004-1.069 0-.142.002-.206-.038-.206-.174.003-1.797.003-3.593 0-5.39 0-.123.05-.173.19-.172.495.004.99.005 1.485 0 .142-.002.2.066.255.165.55.992 1.1 1.983 1.653 2.971.028.05.061.1.112.181.068-.119.12-.207.17-.298.523-.947 1.046-1.896 1.567-2.846.066-.122.149-.175.304-.173.471.008.942.007 1.414 0 .164-.002.22.049.22.197-.004 1.78-.004 3.56 0 5.341 0 .141-.043.204-.215.2a25.877 25.877 0 0 0-1.086 0c-.149.003-.203-.048-.2-.18.007-.278.004-.557 0-.836a696.2 696.2 0 0 0-.029-2.332c-.002-.037-.008-.073-.016-.156zM21.41 18.772v-2.639c0-.212.008-.22.24-.221h4.6c.227 0 .239.01.24.207v.805c0 .205-.01.213-.25.213H23.38c-.174 0-.26.077-.26.232 0 .204.007.407-.003.611-.006.143.059.186.213.185.85-.005 1.702-.002 2.553-.002.188 0 .281.083.282.25 0 .257-.009.515.003.772.006.156-.06.205-.231.204-.858-.005-1.715 0-2.572 0-.24 0-.244.004-.245.214v.612c0 .194.011.203.242.203h2.898c.06 0 .12 0 .181.002.103.002.154.048.154.14v.95c0 .11-.071.134-.176.132-.223-.002-.447 0-.67 0h-4.075c-.26 0-.263-.003-.263-.233v-2.637zM40 21.645h-.35c-.428 0-.856-.003-1.285.002-.136 0-.207-.043-.252-.158-.094-.237-.206-.47-.304-.706-.041-.1-.11-.14-.23-.14-.808.003-1.617.003-2.425 0-.112 0-.178.037-.218.133a13.42 13.42 0 0 1-.332.73c-.03.058-.112.131-.17.133-.501.01-1.002.006-1.503.004a.58.58 0 0 1-.111-.03c.072-.16.138-.312.21-.464l2.418-5.01c.08-.166.18-.24.39-.232.422.014.845.008 1.268.002.14-.002.215.04.27.16.738 1.573 1.479 3.146 2.223 4.717.125.271.252.542.401.86zm-2.764-2.176-.851-1.975-.868 1.975h1.72zM27.772 19.627l.186.12c.675.43 1.397.749 2.252.73.15-.004.298-.037.432-.097.223-.097.315-.336.207-.534a.408.408 0 0 0-.128-.14 1.483 1.483 0 0 0-.441-.212c-.547-.168-1.108-.302-1.648-.484-.712-.24-1.116-.709-1.124-1.396-.005-.643.306-1.147.95-1.47.642-.323 1.354-.372 2.072-.32.693.049 1.345.237 1.96.531.152.074.175.14.096.275-.167.285-.322.577-.469.87-.063.127-.115.156-.265.084-.556-.267-1.14-.471-1.775-.52a1.411 1.411 0 0 0-.496.05c-.306.09-.382.393-.15.593.117.1.255.178.407.23.555.179 1.125.325 1.674.513 1.261.433 1.403 1.585.914 2.34-.342.53-.919.777-1.57.88-1.277.204-2.44-.064-3.506-.704-.256-.154-.253-.159-.111-.412.145-.259.29-.518.437-.777.026-.046.058-.09.096-.15zM15.363 18.777v-2.622c0-.231.011-.243.278-.243.874 0 1.748-.007 2.624.003.472.005.939.066 1.37.253.721.314 1.097.836 1.16 1.538.036.405-.003.806-.19 1.183-.346.702-.99 1.052-1.814 1.139-.46.048-.927.033-1.39.04-.33.005-.33 0-.33.284 0 .364-.006.728.004 1.094.004.157-.062.205-.232.202-.398-.008-.797-.002-1.195-.003-.284 0-.284 0-.284-.247v-2.621zm2.44.066c.15 0 .301.002.452 0 .55-.011.885-.308.914-.77.042-.666-.396-.896-.882-.925-.348-.022-.699-.004-1.049-.007-.111 0-.167.033-.167.139.003.476.002.953 0 1.43 0 .094.048.136.153.136.194-.005.387-.004.58-.004h-.001z" fill="#40AB2A"/>
    <path d="M9.85 18.186s.75 1.125 2.064.908l-2.843.574-1.426-.262s1.227.165 2.205-1.22z" fill="#9E4D46"/>
    <path d="m12.363 16.92 2.866 1.214s-1.396 2.678-7.657 1.254c0 0 2.983.836 4.79-2.469z" fill="#EA2229"/>
</svg>
