<svg width="24" height="24" viewBox="0 0 24 24" fill="none" xmlns="http://www.w3.org/2000/svg">
    <mask id="2ybybx8oua" style="mask-type:alpha" maskUnits="userSpaceOnUse" x="1" y="5" width="22" height="15">
        <path d="m11.487 15.25-2.07 2.098C8.382 18.406 6.926 19 5.415 19h-3.5C1.413 19 1 18.607 1 18.127v-6.54c0-.438.174-.867.485-1.19l1.63-1.565c1.31-1.268 3.078-2.003 4.928-2.064a5.865 5.865 0 0 0-.613 2.615v1.792l-2.006 1.487a.85.85 0 0 0-.165 1.224.938.938 0 0 0 1.282.157l2.107-1.565c.668-.525 1.63-.638 2.372-.21 1.145.656 1.31 2.099.458 2.982h.01zm7.85-3.245c0 .962.824 1.749 1.831 1.749 1.008 0 1.832-.787 1.832-1.75 0-.961-.824-1.748-1.832-1.748-1.007 0-1.832.787-1.832 1.749zM23 15.013v3.113c0 .481-.412.874-.916.874h-8.243a4.693 4.693 0 0 1-2.702-.848l1.685-1.705c.165-.166.303-.341.43-.533.248.28.633.463 1.045.463.76 0 1.374-.586 1.374-1.312 0-.725-.614-1.311-1.374-1.311-.156 0-.302.026-.44.07 0-.131-.018-.271-.036-.411-.165-1.102-.834-2.073-1.841-2.65a3.987 3.987 0 0 0-2.72-.437v-.953C9.261 6.959 11.312 5 13.84 5h8.243c.504 0 .916.394.916.875v3.113a3.706 3.706 0 0 0-1.832-.49c-2.024 0-3.663 1.566-3.663 3.498 0 1.933 1.639 3.498 3.663 3.498.669 0 1.292-.184 1.832-.49v.009zm-7.327-6.069c0-.726-.614-1.311-1.374-1.311-.76 0-1.374.585-1.374 1.311s.614 1.312 1.374 1.312c.76 0 1.374-.586 1.374-1.312z" fill="#FFFFFF"/>
    </mask>
    <g mask="url(#2ybybx8oua)">
        <path fill="#17AE7B" d="M0 0h24v24H0z"/>
    </g>
</svg>
