<svg width="12" height="12" viewBox="0 0 12 12" fill="none" xmlns="http://www.w3.org/2000/svg">
    <mask id="686yyxhmva" style="mask-type:alpha" maskUnits="userSpaceOnUse" x="1" y="0" width="10" height="12">
        <path d="M8 .15c.353.12.674.32.94.582l.828.829c.262.265.461.586.582.939H8V.15zm2.5 3.35v6A2.503 2.503 0 0 1 8 12H4a2.503 2.503 0 0 1-2.5-2.5v-7A2.503 2.503 0 0 1 4 0h3v2.5a1 1 0 0 0 1 1h2.5zM8.404 8.707a.5.5 0 0 0-.698-.113l-.002.002A2.292 2.292 0 0 1 6.567 9a.674.674 0 0 1-.432-.172A1.512 1.512 0 0 0 5.22 8.5a2.928 2.928 0 0 0-1.523.603.5.5 0 1 0 .606.794c.267-.208.582-.345.916-.397.123 0 .186.04.35.15.285.225.637.348 1 .35a3.233 3.233 0 0 0 1.728-.596.5.5 0 0 0 .107-.697zM8.5 7a.5.5 0 0 0-.5-.5H4a.5.5 0 1 0 0 1h4a.5.5 0 0 0 .5-.5zm0-2a.5.5 0 0 0-.5-.5H4a.5.5 0 0 0 0 1h4a.5.5 0 0 0 .5-.5z" fill="#fff"/>
    </mask>
    <g mask="url(#686yyxhmva)">
        <path fill="#FCFCFC" d="M0 0h12v12H0z"/>
    </g>
</svg>
