<svg width="16" height="16" viewBox="0 0 16 16" fill="none" xmlns="http://www.w3.org/2000/svg">
    <path d="M7.45 7.64.728 14.67v.004A1.81 1.81 0 0 0 2.484 16c.335 0 .65-.089.92-.246l.022-.012 7.565-4.302-3.54-3.798z" fill="#EA4335"/>
    <path d="m14.249 6.444-.007-.004-3.266-1.866-3.68 3.227 3.693 3.638 3.249-1.847c.57-.303.956-.895.956-1.577 0-.682-.381-1.266-.945-1.57z" fill="#FBBC04"/>
    <path d="M.728 1.328c-.04.147-.061.301-.061.46V14.21c.006.179.02.314.062.46L7.68 7.82.728 1.328z" fill="#4285F4"/>
    <path d="m7.499 8 3.477-3.426L3.421.256A1.84 1.84 0 0 0 2.483 0C1.643 0 .935.563.729 1.327v.002L7.498 8z" fill="#34A853"/>
</svg>
