<svg width="16" height="16" viewBox="0 0 16 16" fill="none" xmlns="http://www.w3.org/2000/svg">
    <mask id="prlar0qwga" style="mask-type:alpha" maskUnits="userSpaceOnUse" x="0" y="0" width="16" height="16">
        <path d="M5.333 8c-2.206 0-4-1.794-4-4s1.794-4 4-4 4 1.794 4 4-1.794 4-4 4zm7 8a.667.667 0 0 1-.297-.07l-.134-.068c-.76-.38-3.236-1.803-3.236-4.181V9.624c0-.863.551-1.626 1.37-1.898l2.088-.692a.673.673 0 0 1 .419 0l2.086.692A1.998 1.998 0 0 1 16 9.624v2.057c0 2.688-2.51 3.905-3.278 4.214l-.14.056a.67.67 0 0 1-.248.048zm-5-4.32V10.32a.83.83 0 0 0-.61-.802 5.36 5.36 0 0 0-2.029-.147C1.981 9.688 0 12.11 0 14.843v.49c0 .368.299.666.667.666h8.998c-1.126-.906-2.332-2.338-2.332-4.319z" fill="#fff"/>
    </mask>
    <g mask="url(#prlar0qwga)">
        <path fill="#324E64" d="M-4 0h23.999v15.999H-4z"/>
    </g>
</svg>
