<svg width="20" height="20" viewBox="0 0 20 20" fill="none" xmlns="http://www.w3.org/2000/svg">
    <mask id="eavoa459ta" style="mask-type:alpha" maskUnits="userSpaceOnUse" x="2" y="0" width="17" height="20">
        <path d="M15.958 7.02V5.833c0-3.221-2.48-5.833-5.542-5.833-3.06 0-5.541 2.612-5.541 5.833V7.02c-1.441.662-2.373 2.159-2.375 3.813v5c.003 2.3 1.773 4.164 3.958 4.167h7.917c2.185-.003 3.956-1.867 3.958-4.167v-5c-.002-1.654-.934-3.151-2.375-3.813zm-4.75 7.147c0 .46-.354.833-.791.833-.437 0-.792-.373-.792-.833V12.5c0-.46.355-.833.792-.833.437 0 .791.373.791.833v1.667zm3.167-7.5H6.458v-.833c0-2.302 1.773-4.167 3.959-4.167s3.958 1.865 3.958 4.167v.833z" fill="#fff"/>
    </mask>
    <g mask="url(#eavoa459ta)">
        <path fill="#FF8503" d="M-2 0h24v20H-2z"/>
    </g>
</svg>
