<svg width="20" height="20" viewBox="0 0 20 20" fill="none" xmlns="http://www.w3.org/2000/svg">
    <mask id="pjhjmvbxka" style="mask-type:alpha" maskUnits="userSpaceOnUse" x="0" y="1" width="20" height="18">
        <path d="M5.625 1.156C2.644 1.156.208 3.552.208 6.53c0 1.117.225 2.931 1.464 5.08 1.236 2.145 3.448 4.566 7.334 6.955l.005.003a1.904 1.904 0 0 0 1.978 0l.004-.003c3.887-2.39 6.099-4.81 7.335-6.954 1.239-2.15 1.464-3.964 1.464-5.08 0-2.978-2.436-5.374-5.417-5.374-1.57 0-2.9.84-3.758 1.552-.23.191-.437.381-.617.558a9.843 9.843 0 0 0-.617-.558c-.859-.711-2.187-1.552-3.758-1.552z" fill="#ffffff"/>
    </mask>
    <g mask="url(#pjhjmvbxka)">
        <path fill="#17AE7B" d="M0 0h20v20H0z"/>
    </g>
</svg>
