<svg width="60" height="60" viewBox="0 0 60 60" fill="none" xmlns="http://www.w3.org/2000/svg">
    <mask id="1odvhv279a" style="mask-type:alpha" maskUnits="userSpaceOnUse" x="5" y="0" width="50" height="60">
        <path fill-rule="evenodd" clip-rule="evenodd" d="M21.672 3.343C23.912 1.236 26.91.083 30 .083c3.09 0 6.09 1.153 8.329 3.26 2.246 2.113 3.546 5.021 3.546 8.097v14.347a3.125 3.125 0 1 1-6.25 0V11.44c0-1.29-.543-2.57-1.579-3.544-1.042-.981-2.494-1.563-4.046-1.563-1.551 0-3.003.582-4.046 1.563-1.035.974-1.579 2.253-1.579 3.544v14.347a3.125 3.125 0 1 1-6.25 0V11.44c0-3.076 1.3-5.984 3.547-8.097z" fill="#ffffff"/>
        <path d="M15.287 18.076a8.125 8.125 0 0 0-8.104 7.545l-1.791 25c-.337 4.704 3.388 8.706 8.104 8.706h33.008c4.716 0 8.441-4.002 8.105-8.706l-1.791-25a8.125 8.125 0 0 0-8.105-7.544H15.287z" fill="#ffffff"/>
    </mask>
    <g mask="url(#1odvhv279a)">
        <path fill="#17AE7B" d="M0 0h60v60H0z"/>
    </g>
</svg>
