<svg width="16" height="16" viewBox="0 0 16 16" fill="none" xmlns="http://www.w3.org/2000/svg">
    <mask id="2vf1n74owa" style="mask-type:alpha" maskUnits="userSpaceOnUse" x="0" y="0" width="16" height="16">
        <path d="M8.667 0H3.333A3.337 3.337 0 0 0 0 3.333v9.334A3.337 3.337 0 0 0 3.333 16h5.151a5.317 5.317 0 0 1-1.817-4c0-1.593.706-3.022 1.817-4h-5.15a.667.667 0 0 1 0-1.333h5.333c.368 0 .666.298.666.666 0 .022-.01.041-.012.063A5.294 5.294 0 0 1 12 6.666V3.334A3.337 3.337 0 0 0 8.667 0zM3.333 10h1.334a.667.667 0 0 1 0 1.333H3.333a.667.667 0 0 1 0-1.333zm5.334-5.333H3.333a.667.667 0 0 1 0-1.334h5.334a.667.667 0 0 1 0 1.334zM12 8c-2.207 0-4 1.793-4 4s1.793 4 4 4 4-1.793 4-4-1.793-4-4-4zm.667 6c0 .367-.3.667-.667.667a.669.669 0 0 1-.667-.667v-1.333c0-.367.3-.667.667-.667.367 0 .667.3.667.667V14zM12 11.333c-.553 0-1-.446-1-1 0-.553.447-1 1-1 .553 0 1 .447 1 1 0 .554-.447 1-1 1z" fill="#fff"/>
    </mask>
    <g mask="url(#2vf1n74owa)">
        <path fill="#324E64" d="M-4 0h24v16H-4z"/>
    </g>
</svg>
