<svg width="60" height="60" viewBox="0 0 60 60" fill="none" xmlns="http://www.w3.org/2000/svg">
    <mask id="0b2jil61ea" style="mask-type:alpha" maskUnits="userSpaceOnUse" x="2" y="2" width="56" height="56">
        <path d="m7.725 41.899 12.63 12.603c-4.957 2.014-10.612-.362-12.63-5.308a9.647 9.647 0 0 1 0-7.295zm11.521-34.86a2.292 2.292 0 1 0-.918-4.49A24.55 24.55 0 0 0 2.909 12a2.29 2.29 0 0 0 .58 3.19 2.3 2.3 0 0 0 3.11-.465A19.848 19.848 0 0 1 19.245 7.04h.001zm36.45 32.18a2.297 2.297 0 0 0-2.735 1.748 19.792 19.792 0 0 1-7.617 12.39 2.29 2.29 0 0 0-.5 3.203 2.3 2.3 0 0 0 3.21.5 24.51 24.51 0 0 0 9.392-15.108 2.291 2.291 0 0 0-1.749-2.732h-.002.001zm-6.964-24.694 3.536-3.528c.912-.88.937-2.33.056-3.241a2.3 2.3 0 0 0-3.248-.056c-.02.018-.037.037-.056.056L45.48 11.29a19.453 19.453 0 0 0-22.556-1.146l-12.63 7.79c-5.422 3.345-7.1 10.442-3.75 15.854.47.757 1.025 1.458 1.656 2.088l15.98 15.947c4.507 4.499 11.815 4.5 16.322.002a11.527 11.527 0 0 0 1.68-2.124l8.267-13.465a19.544 19.544 0 0 0-1.718-21.71h.002z" fill="#ffffff"/>
    </mask>
    <g mask="url(#0b2jil61ea)">
        <path fill="#1573FE" d="M0 .001h60v60H0z"/>
    </g>
</svg>
