<svg width="24" height="24" viewBox="0 0 24 24" fill="none" xmlns="http://www.w3.org/2000/svg">
    <mask id="mtvoimrkfa" style="mask-type:alpha" maskUnits="userSpaceOnUse" x="0" y="2" width="24" height="21">
        <path d="m23.323 10.095-3.491-5.728C18.942 2.907 17.292 2 15.526 2H8.475c-1.766 0-3.416.908-4.307 2.367l-3.49 5.728a4.607 4.607 0 0 0 0 4.81l3.49 5.728C5.06 22.093 6.709 23 8.476 23h7.05c1.766 0 3.417-.908 4.307-2.367l3.49-5.728a4.607 4.607 0 0 0 0-4.81h.001zm-7.612 4.593c.39.373.39.976 0 1.35-.195.186-.45.28-.705.28-.255 0-.51-.094-.705-.28l-2.287-2.189-2.286 2.189c-.195.186-.45.28-.705.28-.255 0-.51-.094-.705-.28a.925.925 0 0 1 0-1.35l2.287-2.189-2.287-2.189a.925.925 0 0 1 0-1.35 1.028 1.028 0 0 1 1.41 0l2.287 2.19L14.3 8.96a1.028 1.028 0 0 1 1.41 0c.39.373.39.977 0 1.35l-2.286 2.19 2.286 2.188z" fill="#ffffff"/>
    </mask>
    <g mask="url(#mtvoimrkfa)">
        <path fill="#1573FE" d="M0 0h24v24H0z"/>
    </g>
</svg>
