<svg width="17" height="16" viewBox="0 0 17 16" fill="none" xmlns="http://www.w3.org/2000/svg">
    <mask id="5bgyhqzg2a" style="mask-type:alpha" maskUnits="userSpaceOnUse" x="0" y="0" width="17" height="16">
        <path d="m15.61 10.727-5.783-2.63-.06-.024a1.326 1.326 0 0 0-1.375.32c-.363.362-.485.889-.295 1.434l2.63 5.783a.666.666 0 0 0 .594.39h.013a.668.668 0 0 0 .597-.368l1.234-2.468 2.468-1.234a.667.667 0 0 0-.022-1.203h-.002zm-7.002 3.912c-.115.01-.23.018-.347.022-.445-.44-1.606-1.678-2.416-3.328h.488a.666.666 0 1 0 0-1.333h-1.02A6.842 6.842 0 0 1 5 8c0-.693.12-1.365.315-2h5.371c.079.258.145.522.197.791a.666.666 0 1 0 1.309-.249A8.439 8.439 0 0 0 12.07 6h2.289a6.641 6.641 0 0 1 .279 2.607.667.667 0 0 0 1.328.12 8.2 8.2 0 0 0 .033-.726C16 3.589 12.41 0 8 0S0 3.589 0 8s3.589 8 8 8c.244 0 .486-.011.725-.033a.667.667 0 0 0-.117-1.328zM3.928 10H1.64a6.64 6.64 0 0 1-.307-2c0-.697.108-1.37.307-2.001H3.928a8.036 8.036 0 0 0-.261 2c0 .694.097 1.363.261 2V10zm1.92-5.333c.681-1.385 1.61-2.483 2.153-3.059.544.575 1.473 1.671 2.154 3.059H5.849zm7.924 0H11.62c-.527-1.258-1.259-2.326-1.888-3.105a6.698 6.698 0 0 1 4.04 3.105zM6.267 1.563c-.63.779-1.362 1.847-1.888 3.104H2.228a6.69 6.69 0 0 1 4.039-3.104zm-4.039 9.77h2.15c.527 1.258 1.26 2.325 1.889 3.104a6.698 6.698 0 0 1-4.039-3.104z" fill="#ffffff"/>
    </mask>
    <g mask="url(#5bgyhqzg2a)">
        <path fill="#324E64" d="M-4 0h24v16H-4z"/>
    </g>
</svg>
