<svg width="16" height="16" viewBox="0 0 16 16" fill="none" xmlns="http://www.w3.org/2000/svg">
    <path d="m0 16 1.125-4.109A7.911 7.911 0 0 1 .067 7.927C.069 3.557 3.625 0 7.995 0c2.121 0 4.112.827 5.609 2.325a7.883 7.883 0 0 1 2.32 5.61c-.002 4.371-3.559 7.928-7.929 7.928a7.934 7.934 0 0 1-3.792-.966L0 16zm4.398-2.538c1.117.663 2.184 1.06 3.595 1.061a6.602 6.602 0 0 0 6.592-6.59A6.588 6.588 0 0 0 7.998 1.34a6.6 6.6 0 0 0-6.593 6.589c0 1.483.434 2.594 1.164 3.756l-.666 2.432 2.495-.654zm7.591-3.643c-.049-.082-.181-.132-.38-.231-.198-.1-1.172-.579-1.354-.645-.181-.066-.313-.099-.446.1-.132.198-.512.644-.627.776-.115.132-.231.149-.43.05-.197-.1-.836-.308-1.593-.984a5.964 5.964 0 0 1-1.102-1.372c-.115-.198-.012-.306.087-.404.09-.089.198-.232.297-.348.101-.114.134-.197.2-.33.066-.132.034-.248-.016-.347-.05-.099-.446-1.074-.611-1.47-.161-.387-.325-.335-.446-.34l-.38-.007a.726.726 0 0 0-.528.248c-.181.198-.693.677-.693 1.652 0 .976.71 1.918.808 2.05.1.132 1.397 2.133 3.384 2.991.473.204.842.326 1.13.417.474.151.906.13 1.248.079.38-.057 1.172-.48 1.337-.942.165-.463.165-.86.115-.943z" fill="#25D366"/>
</svg>
