<svg width="16" height="16" viewBox="0 0 16 16" fill="none" xmlns="http://www.w3.org/2000/svg">
    <g clip-path="url(#w6mjls02ga)">
        <path d="M15.681 4.123A2.01 2.01 0 0 0 14.267 2.7c-1.251-.337-6.251-.337-6.251-.337s-5 0-6.251.337A2.01 2.01 0 0 0 .35 4.123C.016 5.38.016 8 .016 8s0 2.62.334 3.876A2.01 2.01 0 0 0 1.765 13.3c1.25.336 6.25.336 6.25.336s5 0 6.252-.336a2.01 2.01 0 0 0 1.414-1.424c.335-1.256.335-3.876.335-3.876s0-2.62-.335-3.877z" fill="#FF0302"/>
        <path d="M6.38 10.38V5.62l4.181 2.38-4.181 2.378z" fill="#FEFEFE"/>
    </g>
    <defs>
        <clipPath id="w6mjls02ga">
            <path fill="#fff" d="M0 0h16v16H0z"/>
        </clipPath>
    </defs>
</svg>
