<svg width="67" height="40" viewBox="0 0 67 40" fill="none" xmlns="http://www.w3.org/2000/svg">
    <g clip-path="url(#my1mzeouwa)">
        <path d="M25.184 17.425a7.822 7.822 0 0 0 .618 3.087c1.696 4.052 6.334 5.954 10.362 4.247a7.926 7.926 0 0 0 2.522-1.705 7.575 7.575 0 0 0 1.312-1.786h2.972l-.118.31c-.407.952-.947 1.841-1.6 2.64a10.513 10.513 0 0 1-12.289 3.048c-5.228-2.208-7.808-8.16-5.857-13.517 1.95-5.357 7.74-8.224 13.148-6.512a10.76 10.76 0 0 1 2.759 1.339c.84.574 1.593 1.268 2.238 2.058a11.08 11.08 0 0 1 1.601 2.64 9.609 9.609 0 0 1 .81 3.336H25.22c-.025.134-.037.271-.037.41v.405h.001zm15.239-2.988a7.887 7.887 0 0 0-2.855-3.59 7.958 7.958 0 0 0-8.953 0 7.885 7.885 0 0 0-2.854 3.59h14.662zM.045 28.15l.667-.05c1.208 0 2.415-.006 3.622.005.204 0 .318-.068.427-.231 1.935-2.892 3.874-5.78 5.814-8.667 2.836-4.222 5.67-8.445 8.504-12.667.042-.062.086-.151.136-.234a1.516 1.516 0 0 0-.19.003c-1.302 0-2.603 0-3.906-.003-.138 0-.206.064-.275.168a4729.62 4729.62 0 0 1-4.413 6.581C7.407 17.56 3.881 22.48.857 26.983c-.33.491-.446.619-.812 1.168zM14.284 24.6c-1.607 0-3.215.002-4.82-.005-.197 0-.255.061-.254.256.01 1.005.01 2.007 0 3.008 0 .203.07.251.258.251 3.221-.004 6.442-.004 9.661 0 .178 0 .23-.053.229-.233-.009-.996-.005-1.992-.005-2.989 0-.195-.096-.293-.29-.294l-4.78.002v.003z" fill="#042541"/>
        <path d="M.005 9.758c.074.005.12.011.166.011 3.26 0 6.521.002 9.781.004.157 0 .215-.04.214-.205-.005-1.01-.005-2.019 0-3.028 0-.174-.045-.24-.228-.24-3.24.005-6.48.005-9.722 0-.17 0-.216.06-.216.228.007 1.01.004 2.018.005 3.028v.202z" fill="#D43545"/>
        <path d="M19.358 22.561v-3.054c-.098-.005-.184-.015-.27-.015-1.78 0-3.562 0-5.344-.004-.216 0-.289.043-.287.209.01.882.01 1.763 0 2.646 0 .167.058.223.292.221 1.782-.006 3.563-.004 5.345-.004h.262l.002.002zM49.096 20.516c-1.693-4.052.198-8.718 4.226-10.423 4.028-1.704 8.665.199 10.36 4.252a7.81 7.81 0 0 1 .597 2.49H67V0h-2.701v10.872a8.48 8.48 0 0 0-3.394-2.912 9.597 9.597 0 0 0-4.514-1.204 10.275 10.275 0 0 0-4.128.836 10.645 10.645 0 0 0-5.65 5.686c-2.28 5.434.25 11.697 5.651 13.991 2.097.89 4.32 1.051 6.386.596V25.06c-3.822 1.152-7.971-.758-9.553-4.543h-.001z" fill="#042541"/>
        <path d="M67 16.836h-2.72c.014.198.02.395.019.593a7.825 7.825 0 0 1-.617 3.088 7.933 7.933 0 0 1-5.032 4.542v2.805a10.617 10.617 0 0 0 7.52-6.282c.556-1.312.84-2.725.83-4.153v-.593zM44.455 32.542c-.63-.77-1.545-1.19-2.608-1.19-2.305 0-3.979 1.768-3.979 4.206 0 2.438 1.667 4.27 3.963 4.27.595 0 1.141-.126 1.624-.374l.073-.037-.035-.073c-.12-.25-.18-.519-.182-.799v-.543a.634.634 0 0 1 0-.07l.01-.137-.126.055a2.415 2.415 0 0 1-.97.19c-1.325 0-2.25-1.013-2.25-2.466 0-1.453.904-2.436 2.2-2.436 1.392 0 2.329 1.01 2.329 2.514 0 .163-.012.319-.033.463l-.021.136.129-.044a1.873 1.873 0 0 1 1.83.358l.138.118v-5.16h-2.09v1.018h-.002z" fill="#D43545"/>
        <path d="M33.586 31.523c-1.115 0-1.967.438-2.484 1.272v-1.098h-2.089v8.13h2.09v-4.065c0-1.48.765-2.435 1.95-2.435.935 0 1.45.719 1.45 2.026v4.475h2.09v-4.49c0-2.46-1.069-3.815-3.009-3.815h.002zM52.69 31.523c-1.114 0-1.966.438-2.483 1.272v-1.098h-2.091v8.13h2.09v-4.065c0-1.48.767-2.435 1.951-2.435.935 0 1.45.719 1.45 2.026v4.475h2.09v-4.49c0-2.46-1.068-3.815-3.008-3.815h.001zM61.312 31.523c-2.37 0-4.37 1.942-4.37 4.239 0 2.297 2 4.238 4.37 4.238 2.368 0 4.385-1.941 4.385-4.238 0-2.297-2.007-4.239-4.385-4.239zm2.28 4.239c0 1.356-1.001 2.419-2.28 2.419-1.277 0-2.264-1.063-2.264-2.42 0-1.355.995-2.418 2.265-2.418s2.279 1.063 2.279 2.419z" fill="#003057"/>
        <path d="M46.15 37.993v.543a.969.969 0 0 1-.966.971.968.968 0 0 1-.965-.967v-.543a.965.965 0 1 1 1.93-.002v-.002z" fill="#D43545"/>
    </g>
    <defs>
        <clipPath id="my1mzeouwa">
            <path fill="#fff" d="M0 0h67v40H0z"/>
        </clipPath>
    </defs>
</svg>
